<?xml version="1.0" encoding="UTF-8"?><svg id="Layer_2" xmlns="http://www.w3.org/2000/svg" viewBox="0 0 147.38 148.41"><defs><style>.cls-1{fill:#bdc0ff;stroke:#000;stroke-miterlimit:10;}</style></defs><g id="Layer_40"><path class="cls-1" d="M146.88,74.21c0-20.04-16.11-36.31-36.09-36.58,0-.18,.01-.35,.01-.53C110.8,16.88,94.42,.5,74.21,.5S37.61,16.88,37.61,37.1c0,.18,.01,.35,.01,.53-.18,0-.35-.01-.53-.01C16.88,37.61,.5,53.99,.5,74.21s16.38,36.6,36.6,36.6c.18,0,.35-.01,.53-.01,0,.18-.01,.35-.01,.53,0,20.21,16.38,36.6,36.6,36.6s36.6-16.38,36.6-36.6c0-.18-.01-.35-.01-.53,19.98-.27,36.09-16.54,36.09-36.58Z"/></g></svg>