<?xml version="1.0" encoding="UTF-8"?><svg id="Layer_2" xmlns="http://www.w3.org/2000/svg" viewBox="0 0 474.03 289.46"><g id="Layer_1-2"><path d="M94.93,86.23c0,2.95-.05,5.85-.14,8.71-.09,2.86-.32,5.3-.69,7.32-1.11,6.82-3.87,11.98-8.29,15.48-4.42,3.5-9.49,5.9-15.2,7.19-5.71,1.29-11.33,2.12-16.86,2.49-7.19,.37-13.45,.5-18.79,.41-5.35-.09-10.64-.37-15.89-.83-5.25-.46-12.06-.97-19.06-1.52v-35.93c2.58,.92,6.95,1.98,11.74,3.18,4.79,1.2,8.75,1.8,11.88,1.8,3.32,0,5.53-1.11,6.63-3.32,1.11-2.21,1.66-4.7,1.66-7.46V0h42.56c7.18,0,12.2,.83,15.06,2.49,2.85,1.66,4.47,4.15,4.84,7.46,.37,3.32,.55,7.46,.55,12.44v63.84Z"/><path d="M117.65,127.13V18.52c0-7.74,1.38-12.76,4.15-15.06,2.76-2.3,8.2-3.45,16.31-3.45h140.67V32.06h-98.11v15.2h88.44v31.78h-88.44v16.03h98.11v32.06H117.65Z"/><path d="M300.74,127.13V18.52c0-7.37,1.24-12.3,3.73-14.79s8.24-3.73,17.27-3.73h60.53l44.22,63.57,1.94,10.78V0h45.6c-.37,.37-.65,1.8-.83,4.28-.18,2.49-.28,5.25-.28,8.29V111.65c0,7.01-1.8,11.33-5.39,12.99-3.59,1.66-9.91,2.49-18.93,2.49h-54.72l-46.43-66.33-1.93-10.78V127.13h-44.77Z"/><path d="M139.78,289.46c-7.19,0-13.91-.69-20.17-2.07-6.27-1.38-11.79-3.73-16.58-7.05-1.48-1.11-3-2.16-4.56-3.18-1.57-1.01-3.18-2.12-4.84-3.32-1.66-1.2-3.36-2.44-5.11-3.73-1.75-1.29-3.55-2.72-5.39-4.28-1.84-1.56-3.78-3.27-5.8-5.11-2.4-2.39-4.42-4.37-6.08-5.94-1.66-1.56-3.5-3.36-5.53-5.39l-2.76-2.76v37.86H.21v-108.61c0-4.05,.32-7.42,.97-10.09,.64-2.67,2.35-4.74,5.11-6.22,2.76-1.47,7.46-2.21,14.09-2.21H62.95v38.69l2.76-2.49c.92-.92,1.98-1.89,3.18-2.9,1.2-1.01,2.72-2.35,4.56-4.01,1.11-1.11,3.32-2.99,6.63-5.67,3.32-2.67,6.86-5.48,10.64-8.43,3.77-2.94,6.68-5.07,8.71-6.36,5.71-4.24,12.02-7.09,18.93-8.57,6.91-1.47,15.34-2.21,25.29-2.21,7.19,0,13.17,.28,17.96,.83,4.79,.55,10.04,1.29,15.75,2.21-.37,.19-1.43,1.06-3.18,2.63-1.75,1.57-3.64,3.13-5.67,4.7-2.03,1.57-3.5,2.72-4.42,3.45-7.74,5.16-16.03,10.74-24.87,16.72-8.84,5.99-17.46,12.07-25.84,18.24-8.39,6.18-15.89,12.21-22.53,18.1v-18.79c6.45,5.35,13.22,10.78,20.31,16.31,7.09,5.53,14.46,11.15,22.11,16.86,7.64,5.71,15.52,11.43,23.63,17.13,8.1,5.71,16.31,11.33,24.6,16.86-1.29,1.84-3.78,4.24-7.46,7.19-3.69,2.95-8.39,5.62-14.1,8.01-5.71,2.39-12.44,3.59-20.17,3.59Z"/><path d="M196.84,283.48v-108.89c0-3.87,.32-7.19,.97-9.95,.64-2.76,2.39-4.84,5.25-6.22,2.85-1.38,7.6-2.07,14.23-2.07h42.56v127.13h-63.01Z"/><path d="M283.96,283.48v-110.55c0-7.37,1.52-11.98,4.56-13.82,3.04-1.84,9.16-2.76,18.38-2.76h48.64l22.66,50.85,.55,3.59h.56l.55-3.59,21-50.85h51.41c8.84,0,14.51,1.24,17,3.73,2.49,2.49,3.73,7.42,3.73,14.79v90.37c0,6.08-.65,10.36-1.94,12.85-1.29,2.49-3.59,4.01-6.91,4.56-3.31,.55-8.02,.83-14.09,.83h-40.07v-60.25l-2.21,10.78-20.45,49.47h-36.76l-20.45-49.47-2.21-10.78v60.25h-43.94Z"/></g></svg>