<svg width="831" height="349" viewBox="0 0 831 349" fill="none" xmlns="http://www.w3.org/2000/svg">
<path d="M110.307 261.879C103.564 261.879 96.7357 259.301 89.839 254.143C82.9252 248.986 77.2435 242.453 72.7427 234.562C68.2419 226.654 66 219.004 66 211.577C66 195.452 69.2858 178.277 75.8744 160.054C82.446 141.848 91.5161 124.743 103.085 108.789C114.636 92.8354 128.036 79.7699 143.284 69.6097C158.532 59.4495 174.653 54.3608 191.681 54.3608C202.907 54.3608 211.669 56.6989 217.916 61.375C224.179 66.0511 227.311 72.5838 227.311 80.9561C227.311 90.9615 224.179 99.6604 217.916 107.07C211.652 114.497 203.232 120.858 192.639 126.17C182.046 131.482 170.255 135.917 157.249 139.476C144.243 143.035 131.014 146.095 117.528 148.673C115.595 149 114.072 149.395 112.959 149.877C111.83 150.358 110.957 151.562 110.307 153.504C108.048 160.604 105.806 168.34 103.564 176.73C101.322 185.119 100.193 193.01 100.193 200.437C100.193 211.732 102.366 220.431 106.696 226.551C111.025 232.688 117.357 235.748 125.709 235.748C137.26 235.748 147.049 232.843 155.075 227.049C163.101 221.239 248.651 133.442 253.785 127.631C256.986 124.09 259.878 122.319 262.445 122.319C265.645 122.319 262.787 117.23 262.787 120.445V122.13C262.787 122.938 262.462 123.66 261.829 124.313C255.411 134.955 173.01 229.938 164.984 237.192C156.958 244.447 149.051 252.63 139.913 256.327C130.757 260.023 120.9 261.897 110.307 261.897V261.879ZM120.9 137.568C124.425 137.568 130.449 136.519 138.954 134.422C147.46 132.324 156.359 128.938 165.686 124.261C174.995 119.585 182.936 113.792 189.525 106.846C196.096 99.9183 199.399 91.6148 199.399 81.936C199.399 77.7413 198.27 74.1139 196.028 71.0538C193.786 67.9937 190.568 66.4637 186.393 66.4637C179.65 66.4637 172.343 69.2831 164.488 74.9219C156.615 80.5779 149.154 87.3341 142.103 95.2422C135.035 103.15 129.183 110.801 124.528 118.227C119.873 125.654 117.546 131.138 117.546 134.68C117.546 136.622 118.658 137.585 120.917 137.585L120.9 137.568Z" fill="#9A9A9A"/>
<path d="M212.525 261.037C205.457 261.037 199.365 259.026 194.231 254.986C189.097 250.963 186.53 245.874 186.53 239.754C186.53 232.345 188.207 226.775 191.578 223.061C194.95 219.365 197.756 217.491 199.998 217.491C202.24 217.491 204.567 218.385 206.98 220.156C209.393 221.927 212.029 224.11 214.921 226.689C218.446 229.267 222.382 231.76 226.712 234.184C231.042 236.608 236.74 237.812 243.808 237.812C252.468 237.812 259.382 234.666 264.516 228.373C269.65 222.081 272.371 215.394 272.696 208.294C272.696 201.211 271.498 193.543 269.085 185.309C266.672 177.091 263.215 168.942 258.731 160.88C254.556 153.143 251.099 145.803 248.378 138.874C245.639 131.946 244.287 126.05 244.287 121.219C244.287 111.867 246.769 103.082 251.749 94.8642C256.729 86.6467 262.821 79.4606 270.043 73.3404C277.265 67.2203 284.401 62.4582 291.469 59.0715C298.52 55.6848 304.15 54 308.326 54C312.502 54 316.677 55.2034 320.853 57.6274C325.029 60.0514 328.468 62.7849 331.206 65.8449C333.928 68.9222 338.069 73.9421 338.069 76.1942C338.069 78.1369 338.257 81.1282 336.323 83.8616C334.39 86.6123 335.399 89.9474 332.832 92.1823C330.265 94.4344 324.361 105.97 322.427 105.97C320.819 105.97 319.21 105.162 317.618 103.546C316.01 101.93 311.885 90.5148 310.927 87.9532C309.712 84.7212 304.561 80.2514 301.84 78.6354C299.102 77.0194 295.491 76.2114 291.007 76.2114C285.873 76.2114 281.372 78.3947 277.522 82.7442C273.671 87.0936 271.737 92.8356 271.737 99.9185C271.737 102.497 272.627 106.537 274.39 112.004C276.153 117.488 278.24 123.127 280.653 128.938C283.066 134.748 285.377 139.906 287.636 144.41C291.161 150.874 294.447 159.006 297.51 168.839C300.556 178.673 302.079 187.303 302.079 194.712C302.079 204.391 299.273 213.262 293.66 221.308C288.046 229.371 280.739 236.385 271.755 242.35C262.77 248.316 253.05 252.923 242.627 256.138C232.188 259.353 222.16 260.969 212.525 260.969V261.037Z" fill="#9A9A9A"/>
<path d="M532.221 261.879C525.478 261.879 518.65 259.301 511.753 254.143C504.839 248.986 499.157 242.453 494.657 234.562C490.156 226.654 487.914 219.004 487.914 211.577C487.914 195.452 491.2 178.277 497.788 160.054C504.36 141.848 513.43 124.743 524.999 108.789C536.55 92.8354 549.95 79.7699 565.198 69.6097C580.446 59.4495 596.567 54.3608 613.595 54.3608C624.821 54.3608 633.583 56.6989 639.83 61.375C646.093 66.0511 649.225 72.5838 649.225 80.9561C649.225 90.9615 646.093 99.6604 639.83 107.07C633.566 114.497 625.146 120.858 614.553 126.17C603.96 131.482 592.169 135.917 579.163 139.476C566.156 143.035 552.928 146.095 539.442 148.673C537.509 149 535.986 149.395 534.873 149.877C533.744 150.358 532.871 151.562 532.221 153.504C529.962 160.604 527.72 168.34 525.478 176.73C523.236 185.119 522.107 193.01 522.107 200.437C522.107 211.732 524.28 220.431 528.61 226.551C532.939 232.688 539.271 235.748 547.623 235.748C559.174 235.748 568.963 232.843 576.989 227.049C585.015 221.239 670.565 133.442 675.699 127.631C678.9 124.09 681.792 122.319 684.359 122.319C687.559 122.319 684.701 117.23 684.701 120.445V122.13C684.701 122.938 684.376 123.66 683.743 124.313C677.325 134.955 594.924 229.938 586.898 237.192C578.872 244.447 570.965 252.63 561.827 256.327C552.671 260.023 542.814 261.897 532.221 261.897V261.879ZM542.814 137.568C546.339 137.568 552.363 136.519 560.868 134.422C569.374 132.324 578.273 128.938 587.6 124.261C596.909 119.585 604.85 113.792 611.439 106.846C618.01 99.9183 621.313 91.6148 621.313 81.936C621.313 77.7413 620.183 74.1139 617.942 71.0538C615.7 67.9937 612.482 66.4637 608.307 66.4637C601.564 66.4637 594.257 69.2831 586.402 74.9219C578.529 80.5779 571.068 87.3341 564.017 95.2422C556.949 103.15 551.097 110.801 546.442 118.227C541.787 125.654 539.46 131.138 539.46 134.68C539.46 136.622 540.572 137.585 542.831 137.585L542.814 137.568Z" fill="#9A9A9A"/>
<path d="M634.439 261.037C627.371 261.037 621.279 259.026 616.145 254.986C611.011 250.963 608.444 245.874 608.444 239.754C608.444 232.345 610.121 226.775 613.492 223.061C616.863 219.365 619.67 217.491 621.912 217.491C624.154 217.491 626.481 218.385 628.894 220.156C631.307 221.927 633.943 224.11 636.835 226.689C640.36 229.267 644.296 231.76 648.626 234.184C652.956 236.608 658.654 237.812 665.722 237.812C674.382 237.812 681.295 234.666 686.429 228.373C691.563 222.081 694.284 215.394 694.61 208.294C694.61 201.211 693.412 193.543 690.999 185.309C688.586 177.091 685.129 168.942 680.645 160.88C676.469 153.143 673.012 145.803 670.291 138.874C667.553 131.946 666.201 126.05 666.201 121.219C666.201 111.867 668.683 103.082 673.663 94.8642C678.643 86.6467 684.735 79.4606 691.957 73.3404C699.179 67.2203 706.315 62.4582 713.383 59.0715C720.434 55.6848 726.064 54 730.24 54C734.415 54 738.591 55.2034 742.767 57.6274C746.942 60.0514 750.382 62.7849 753.12 65.8449C755.841 68.9222 759.983 73.9421 759.983 76.1942C759.983 78.1369 759.161 80.6468 758.237 83.8616C757.125 87.6782 754.216 92.9216 752.367 96.2051C750.69 99.1965 746.275 105.987 744.341 105.987C742.733 105.987 741.124 105.179 739.532 103.563C737.924 101.947 733.799 90.5319 732.841 87.9704C731.626 84.7384 726.475 80.2686 723.754 78.6526C721.016 77.0366 717.405 76.2286 712.921 76.2286C707.787 76.2286 703.286 78.4119 699.436 82.7614C695.585 87.1108 693.651 92.8528 693.651 99.9357C693.651 102.514 694.541 106.554 696.304 112.021C698.067 117.505 700.154 123.144 702.567 128.955C704.98 134.766 707.291 139.923 709.55 144.427C713.075 150.891 716.361 159.023 719.424 168.856C722.47 178.69 723.993 187.32 723.993 194.73C723.993 204.408 721.187 213.279 715.574 221.325C709.96 229.388 702.653 236.402 693.668 242.367C684.684 248.333 674.963 252.94 664.541 256.155C654.102 259.37 644.074 260.986 634.439 260.986V261.037Z" fill="#9A9A9A"/>
<path d="M317.396 262C315.462 262 313.614 261.278 311.851 259.817C310.089 258.373 308.548 256.585 307.282 254.504C305.998 252.407 305.109 250.069 304.629 247.49C304.15 244.912 304.39 242.659 305.348 240.717L361.206 103.34C366.991 89.1565 367.299 82.0564 362.165 82.0564C358.947 82.0564 355.576 82.469 352.051 83.2598C348.508 84.0678 344.658 86.0793 340.499 89.3113C336.323 92.5433 331.669 97.5288 326.535 104.302C325.251 105.592 323.882 106.159 322.444 106.004C321.007 105.849 319.946 104.629 319.313 102.377C319.313 100.434 319.877 97.9414 320.99 94.8813C322.102 91.8212 323.471 88.7611 325.08 85.701C326.689 82.6409 328.126 80.131 329.41 78.2055C334.218 70.796 340.722 64.9853 348.902 60.7905C357.082 56.613 366.631 54.3437 377.55 54.0171C381.075 54.0171 384.292 54.911 387.184 56.6818C390.077 58.4525 392.233 60.9625 393.688 64.1773C395.125 67.4093 395.057 70.9507 393.448 74.8188L361.668 157.046C360.71 159.298 360.95 160.604 362.387 160.914C363.825 161.241 365.04 160.604 365.998 158.988C379.158 136.416 392.558 117.316 406.197 101.672C419.837 86.0277 432.911 74.1827 445.438 66.1199C457.965 58.0571 469.038 54.0343 478.656 54.0343C485.398 54.0343 491.251 56.3723 496.231 61.0484C501.211 65.7245 504.411 72.0166 505.866 79.9075C507.303 87.8156 505.78 96.9271 501.297 107.242L456.99 212.695C452.181 224.299 452.968 230.11 459.403 230.11C463.254 230.11 467.994 228.666 473.607 225.76C479.22 222.855 484.919 219.399 490.703 215.359C496.488 211.337 501.536 207.623 505.866 204.236C510.196 200.85 513.002 198.512 514.286 197.222C514.594 196.913 514.85 196.741 515.004 196.741H515.723C516.682 196.741 517.571 197.154 518.376 197.944C519.18 198.752 519.574 199.801 519.574 201.09C519.574 203.669 518.923 205.921 517.64 207.864C509.289 217.869 500.372 226.895 490.909 234.958C481.445 243.021 471.656 249.399 461.542 254.057C451.428 258.734 441.229 261.072 430.961 261.072C428.068 261.072 425.176 260.023 422.301 257.926C419.409 255.828 417.253 253.163 415.798 249.949C414.361 246.734 414.429 243.347 416.038 239.788C425.347 218.179 434.725 196.655 444.206 175.217C453.67 153.779 462.586 132.256 470.92 110.646C476.054 97.4256 477.817 88.1594 476.226 82.8301C474.617 77.5179 471.571 74.6813 467.07 74.3718C463.527 74.0452 459.369 75.2658 454.543 77.9992C449.734 80.7499 444.275 84.9446 438.165 90.5834C432.056 96.2394 425.484 103.408 418.416 112.107C414.566 116.629 409.432 123.643 403.014 133.15C396.597 142.656 389.358 153.625 381.349 166.037C373.323 178.449 365.057 191.669 356.551 205.698C348.046 219.726 339.934 233.514 332.233 247.061C329.341 252.218 326.774 256 324.532 258.424C322.29 260.848 319.877 262.051 317.31 262.051L317.396 262Z" fill="#9A9A9A"/>
<line y1="52.5" x2="831" y2="52.5" stroke="#6C2D23" stroke-width="3"/>
<line y1="260.5" x2="831" y2="260.5" stroke="#6C2D23" stroke-width="3"/>
<line x1="741.5" y1="3" x2="741.5" y2="345" stroke="#6C2D23" stroke-width="3"/>
<path d="M66 2V344L379 2" stroke="#6C2D23" stroke-width="3"/>
<path d="M482 3V345L796 3" stroke="#6C2D23" stroke-width="3"/>
</svg>
