<svg width="663" height="228" viewBox="0 0 663 228" fill="none" xmlns="http://www.w3.org/2000/svg">
<path d="M155.354 5.99999L182.354 21.6L199.154 136.8L92.3535 5.99999H0.853516L29.6535 23.4L24.8535 217.2H8.35352V222H83.9535V217.2H47.6535L35.6535 40.8L189.554 222H205.154V21.6L232.154 5.99999H155.354Z" fill="black"/>
<path d="M317.876 225C374.876 225 402.776 189.9 402.776 146.1C402.776 99 367.076 69 317.576 69C268.676 69 235.076 103.2 235.076 146.1C235.076 194.4 274.676 225 317.876 225ZM351.476 214.2C326.876 214.2 274.976 123.9 274.976 94.5C274.976 85.2 279.476 79.8 286.976 79.8C313.376 79.8 363.776 173.7 363.776 198.9C363.776 209.1 359.576 214.2 351.476 214.2Z" fill="black"/>
<path d="M451.048 226.5C468.448 226.5 479.848 215.4 479.848 197.4C479.848 179.4 468.448 168.3 451.048 168.3C433.648 168.3 422.248 179.4 422.248 197.4C422.248 215.4 433.648 226.5 451.048 226.5Z" fill="black"/>
<path d="M623.534 97.2L602.234 81.9C631.934 80.4 652.334 67.5 652.334 44.4C652.334 20.4 623.534 0 583.934 0C539.234 0 509.234 26.7 508.934 60.9C508.634 84.9 518.534 101.1 549.134 124.2C517.334 126.9 496.634 146.1 496.634 171C496.634 207 531.734 228 579.134 228C624.734 228 662.234 195.9 662.234 156.6C662.234 134.4 650.534 116.4 623.534 97.2ZM578.834 6.29999C595.034 6.29999 607.034 19.8 607.034 43.2C607.034 57.3 604.634 69 599.234 79.8L577.034 63.9C562.634 53.7 554.534 42.6 554.534 30.9C554.534 15.9 564.734 6.29999 578.834 6.29999ZM583.934 221.7C560.834 221.7 545.534 203.1 545.534 162.9C545.534 149.1 547.634 138.3 552.434 126.6C555.134 128.7 557.834 130.5 560.834 132.6L582.134 147.3C600.134 159.9 611.834 173.1 611.834 190.2C611.834 208.2 600.734 221.7 583.934 221.7Z" fill="black"/>
</svg>
