<svg width="893" height="217" viewBox="0 0 893 217" fill="none" xmlns="http://www.w3.org/2000/svg">
<path d="M83.132 216.1C67.732 216.1 53.932 213.6 41.732 208.6C29.532 203.6 19.732 196.2 12.332 186.4C5.13201 176.6 1.33201 164.8 0.932007 151H55.532C56.332 158.8 59.032 164.8 63.632 169C68.232 173 74.232 175 81.632 175C89.232 175 95.232 173.3 99.632 169.9C104.032 166.3 106.232 161.4 106.232 155.2C106.232 150 104.432 145.7 100.832 142.3C97.432 138.9 93.132 136.1 87.932 133.9C82.932 131.7 75.732 129.2 66.332 126.4C52.732 122.2 41.632 118 33.032 113.8C24.432 109.6 17.032 103.4 10.832 95.1999C4.63201 86.9999 1.53201 76.2999 1.53201 63.0999C1.53201 43.4999 8.63201 28.1999 22.832 17.1999C37.032 5.9999 55.532 0.399902 78.332 0.399902C101.532 0.399902 120.232 5.9999 134.432 17.1999C148.632 28.1999 156.232 43.5999 157.232 63.3999H101.732C101.332 56.5999 98.832 51.2999 94.232 47.4999C89.632 43.4999 83.732 41.4999 76.532 41.4999C70.332 41.4999 65.332 43.1999 61.532 46.5999C57.732 49.7999 55.832 54.4999 55.832 60.6999C55.832 67.4999 59.032 72.7999 65.432 76.5999C71.832 80.3999 81.832 84.4999 95.432 88.8999C109.032 93.4999 120.032 97.8999 128.432 102.1C137.032 106.3 144.432 112.4 150.632 120.4C156.832 128.4 159.932 138.7 159.932 151.3C159.932 163.3 156.832 174.2 150.632 184C144.632 193.8 135.832 201.6 124.232 207.4C112.632 213.2 98.932 216.1 83.132 216.1Z" fill="black"/>
<path d="M242.802 44.4999V87.0999H311.502V126.7H242.802V172.9H320.502V214H191.502V3.3999H320.502V44.4999H242.802Z" fill="black"/>
<path d="M542.207 214H490.907L405.107 84.0999V214H353.807V3.3999H405.107L490.907 133.9V3.3999H542.207V214Z" fill="black"/>
<path d="M655.593 216.1C640.193 216.1 626.393 213.6 614.193 208.6C601.993 203.6 592.193 196.2 584.793 186.4C577.593 176.6 573.793 164.8 573.393 151H627.993C628.793 158.8 631.493 164.8 636.093 169C640.693 173 646.693 175 654.093 175C661.693 175 667.693 173.3 672.093 169.9C676.493 166.3 678.693 161.4 678.693 155.2C678.693 150 676.893 145.7 673.293 142.3C669.893 138.9 665.593 136.1 660.393 133.9C655.393 131.7 648.193 129.2 638.793 126.4C625.193 122.2 614.093 118 605.493 113.8C596.893 109.6 589.493 103.4 583.293 95.1999C577.093 86.9999 573.993 76.2999 573.993 63.0999C573.993 43.4999 581.093 28.1999 595.293 17.1999C609.493 5.9999 627.993 0.399902 650.793 0.399902C673.993 0.399902 692.693 5.9999 706.893 17.1999C721.093 28.1999 728.693 43.5999 729.693 63.3999H674.193C673.793 56.5999 671.293 51.2999 666.693 47.4999C662.093 43.4999 656.193 41.4999 648.993 41.4999C642.793 41.4999 637.793 43.1999 633.993 46.5999C630.193 49.7999 628.293 54.4999 628.293 60.6999C628.293 67.4999 631.493 72.7999 637.893 76.5999C644.293 80.3999 654.293 84.4999 667.893 88.8999C681.493 93.4999 692.493 97.8999 700.893 102.1C709.493 106.3 716.893 112.4 723.093 120.4C729.293 128.4 732.393 138.7 732.393 151.3C732.393 163.3 729.293 174.2 723.093 184C717.093 193.8 708.293 201.6 696.693 207.4C685.093 213.2 671.393 216.1 655.593 216.1Z" fill="black"/>
<path d="M815.263 44.4999V87.0999H883.963V126.7H815.263V172.9H892.963V214H763.963V3.3999H892.963V44.4999H815.263Z" fill="black"/>
</svg>
